<?xml version="1.0" encoding="UTF-8" standalone="no"?>
<!-- Created with Inkscape (http://www.inkscape.org/) -->
<svg id="svg4219" xmlns:rdf="http://www.w3.org/1999/02/22-rdf-syntax-ns#" xmlns="http://www.w3.org/2000/svg" height="740" width="330" version="1.1" xmlns:cc="http://creativecommons.org/ns#" xmlns:dc="http://purl.org/dc/elements/1.1/" viewBox="0 0 330 740.00001">
 <defs id="defs4221">
  <marker id="marker8182" refY="0" refX="0" overflow="visible" orient="auto">
   <path id="path8184" d="m0 0 5-5-17.5 5 17.5 5-5-5z" fill-rule="evenodd" transform="matrix(.8 0 0 .8 10 0)" stroke="#00f" stroke-width="1pt" fill="#00f"/>
  </marker>
  <marker id="marker8050" refY="0" refX="0" orient="auto" overflow="visible">
   <path id="path8052" d="m0 0 5-5-17.5 5 17.5 5-5-5z" fill-rule="evenodd" transform="matrix(.8 0 0 .8 10 0)" stroke="#00f" stroke-width="1pt" fill="#00f"/>
  </marker>
  <marker id="marker7870" refY="0" refX="0" orient="auto" overflow="visible">
   <path id="path7872" d="m0 0 5-5-17.5 5 17.5 5-5-5z" fill-rule="evenodd" transform="matrix(-.8 0 0 -.8 -10 0)" stroke="#00f" stroke-width="1pt" fill="#00f"/>
  </marker>
  <marker id="marker7614" refY="0" refX="0" overflow="visible" orient="auto">
   <path id="path7616" d="m0 0 5-5-17.5 5 17.5 5-5-5z" fill-rule="evenodd" transform="matrix(-.8 0 0 -.8 -10 0)" stroke="#00f" stroke-width="1pt" fill="#00f"/>
  </marker>
  <marker id="marker7386" refY="0" refX="0" overflow="visible" orient="auto">
   <path id="path7388" d="m0 0 5-5-17.5 5 17.5 5-5-5z" fill-rule="evenodd" transform="matrix(-.8 0 0 -.8 -10 0)" stroke="#00f" stroke-width="1pt" fill="#00f"/>
  </marker>
  <marker id="marker7182" refY="0" refX="0" orient="auto" overflow="visible">
   <path id="path7184" d="m0 0 5-5-17.5 5 17.5 5-5-5z" fill-rule="evenodd" transform="matrix(-.8 0 0 -.8 -10 0)" stroke="#00f" stroke-width="1pt" fill="#00f"/>
  </marker>
  <marker id="marker6820" refY="0" refX="0" overflow="visible" orient="auto">
   <path id="path6822" d="m0 0 5-5-17.5 5 17.5 5-5-5z" fill-rule="evenodd" transform="matrix(-.8 0 0 -.8 -10 0)" stroke="#00f" stroke-width="1pt" fill="#00f"/>
  </marker>
  <marker id="marker6484" refY="0" refX="0" orient="auto" overflow="visible">
   <path id="path6486" d="m0 0 5-5-17.5 5 17.5 5-5-5z" fill-rule="evenodd" transform="matrix(-.8 0 0 -.8 -10 0)" stroke="#00f" stroke-width="1pt" fill="#00f"/>
  </marker>
  <marker id="marker6310" refY="0" refX="0" overflow="visible" orient="auto">
   <path id="path6312" d="m0 0 5-5-17.5 5 17.5 5-5-5z" fill-rule="evenodd" transform="matrix(.8 0 0 .8 10 0)" stroke="#00f" stroke-width="1pt" fill="#00f"/>
  </marker>
  <marker id="marker6222" refY="0" refX="0" overflow="visible" orient="auto">
   <path id="path6224" d="m0 0 5-5-17.5 5 17.5 5-5-5z" fill-rule="evenodd" transform="matrix(.8 0 0 .8 10 0)" stroke="#00f" stroke-width="1pt" fill="#00f"/>
  </marker>
  <marker id="marker6140" refY="0" refX="0" overflow="visible" orient="auto">
   <path id="path6142" d="m0 0 5-5-17.5 5 17.5 5-5-5z" fill-rule="evenodd" transform="matrix(.8 0 0 .8 10 0)" stroke="#00f" stroke-width="1pt" fill="#00f"/>
  </marker>
  <marker id="marker6064" refY="0" refX="0" overflow="visible" orient="auto">
   <path id="path6066" d="m0 0 5-5-17.5 5 17.5 5-5-5z" fill-rule="evenodd" transform="matrix(.8 0 0 .8 10 0)" stroke="#00f" stroke-width="1pt" fill="#00f"/>
  </marker>
  <marker id="marker5994" refY="0" refX="0" overflow="visible" orient="auto">
   <path id="path5996" d="m0 0 5-5-17.5 5 17.5 5-5-5z" fill-rule="evenodd" transform="matrix(.8 0 0 .8 10 0)" stroke="#00f" stroke-width="1pt" fill="#00f"/>
  </marker>
  <marker id="marker5930" refY="0" refX="0" overflow="visible" orient="auto">
   <path id="path5932" d="m0 0 5-5-17.5 5 17.5 5-5-5z" fill-rule="evenodd" transform="matrix(.8 0 0 .8 10 0)" stroke="#00f" stroke-width="1pt" fill="#00f"/>
  </marker>
  <marker id="marker5860" refY="0" refX="0" orient="auto" overflow="visible">
   <path id="path5862" d="m0 0 5-5-17.5 5 17.5 5-5-5z" fill-rule="evenodd" transform="matrix(.8 0 0 .8 10 0)" stroke="#00f" stroke-width="1pt" fill="#00f"/>
  </marker>
  <marker id="marker5796" refY="0" refX="0" orient="auto" overflow="visible">
   <path id="path5798" d="m0 0 5-5-17.5 5 17.5 5-5-5z" fill-rule="evenodd" transform="matrix(.8 0 0 .8 10 0)" stroke="#00f" stroke-width="1pt" fill="#00f"/>
  </marker>
  <marker id="marker5136" refY="0" refX="0" overflow="visible" orient="auto">
   <path id="path5138" d="m0 0 5-5-17.5 5 17.5 5-5-5z" fill-rule="evenodd" transform="matrix(-.8 0 0 -.8 -10 0)" stroke="#00f" stroke-width="1pt" fill="#00f"/>
  </marker>
  <marker id="marker5114" refY="0" refX="0" overflow="visible" orient="auto">
   <path id="path5116" d="m0 0 5-5-17.5 5 17.5 5-5-5z" fill-rule="evenodd" transform="matrix(-.8 0 0 -.8 -10 0)" stroke="#00f" stroke-width="1pt" fill="#00f"/>
  </marker>
  <marker id="Arrow1Lend" refY="0" refX="0" orient="auto" overflow="visible">
   <path id="path4841" d="m0 0 5-5-17.5 5 17.5 5-5-5z" fill-rule="evenodd" transform="matrix(-.8 0 0 -.8 -10 0)" stroke="#00f" stroke-width="1pt" fill="#00f"/>
  </marker>
 </defs>
 <metadata id="metadata4224">
  <rdf:RDF>
   <cc:Work rdf:about="">
    <dc:format>image/svg+xml</dc:format>
    <dc:type rdf:resource="http://purl.org/dc/dcmitype/StillImage"/>
    <dc:title/>
   </cc:Work>
  </rdf:RDF>
 </metadata>
 <g id="layer1" stroke-linejoin="round" fill-opacity=".26667" fill-rule="evenodd" transform="translate(0 -312.36)" stroke="#000" stroke-linecap="round" stroke-width="2">
  <path id="path4769" d="m117.86 329.36a110 110 0 0 0 -27.857 73 110 110 0 0 0 27.895 73h164.25a110 110 0 0 0 27.855 -73 110 110 0 0 0 -27.896 -73h-164.25z" fill="#faa"/>
  <rect id="rect4774" rx="40" ry="40" height="156" width="220" y="511.36" x="90" fill="#fa4"/>
  <rect id="rect4778" rx="40" ry="40" height="146" width="220" y="703.36" x="90" fill="#ffa"/>
  <rect id="rect4782" rx="26" ry="26" height="146" width="156" y="890.36" x="122" fill="#afa"/>
 </g>
 <g id="layer2">
  <g stroke="#00f" stroke-width=".5" fill="none">
   <path id="path5858" d="m102 578v55" marker-start="url(#marker5796)"/>
   <path id="path5854" d="m70 391v55" marker-start="url(#marker6222)"/>
   <path id="path5850" d="m70 199v55" marker-start="url(#marker6064)"/>
   <path id="path5772" d="m70 17v55" marker-start="url(#marker5930)"/>
  </g>
  <g font-size="30px" font-family="&apos;Bitstream Vera Sans&apos;">
   <text id="text4797" style="word-spacing:0px;letter-spacing:-1px;text-anchor:end;text-align:end" xml:space="preserve" line-height="89.99999762%" y="46" x="51" fill="#440000"><tspan id="tspan4799" x="50" y="46">BH</tspan></text>
   <text id="text4801" style="word-spacing:0px;letter-spacing:-1px;text-anchor:end;text-align:end" line-height="89.99999762%" y="228.00003" x="51" xml:space="preserve" fill="#442200"><tspan id="tspan4803" y="228.00003" x="50">KS</tspan></text>
   <text id="text4805" style="word-spacing:0px;letter-spacing:-1px;text-anchor:end;text-align:end" line-height="89.99999762%" y="420" x="51" xml:space="preserve" fill="#444400"><tspan id="tspan4807" y="420" x="50">DH</tspan></text>
   <text id="text4809" style="word-spacing:0px;letter-spacing:-1px;text-anchor:end;text-align:end" xml:space="preserve" line-height="89.99999762%" y="607" x="53.000008" fill="#004400"><tspan id="tspan4811" x="52.000008" y="607">CS</tspan></text>
  </g>
  <g stroke="#00f" stroke-width=".5" fill="none">
   <path id="path4826" marker-end="url(#marker5114)" d="m270 239 34.641-20"/>
   <path id="path4828" marker-end="url(#Arrow1Lend)" d="m270 431 34.641-20"/>
   <path id="path4832" marker-end="url(#marker5136)" d="m252 604 22.517-13"/>
  </g>
  <g font-size="12.5px" font-family="&apos;Bitstream Vera Sans&apos;" fill="#0000ff">
   <text id="text5170" style="word-spacing:0px;letter-spacing:-1px;text-anchor:middle;text-align:center" xml:space="preserve" line-height="110.00000238%" y="240" x="245.5"><tspan id="tspan5172" x="245" y="240">R 0.020&quot;</tspan><tspan id="tspan5174" x="245" y="253.75">(0.51 mm)</tspan></text>
   <text id="text5176" style="word-spacing:0px;letter-spacing:-1px;text-anchor:middle;text-align:center" line-height="110.00000238%" y="430" x="245.5" xml:space="preserve"><tspan id="tspan5178" y="430" x="245">R 0.020&quot;</tspan><tspan id="tspan5180" y="443.75" x="245">(0.51 mm)</tspan></text>
   <text id="text5182" style="word-spacing:0px;letter-spacing:-1px;text-anchor:middle;text-align:center" xml:space="preserve" line-height="110.00000238%" y="610" x="220.5"><tspan id="tspan5184" x="220" y="610">R 0.013&quot;</tspan><tspan id="tspan5186" x="220" y="623.75">(0.33 mm)</tspan></text>
   <text id="text5554" style="word-spacing:0px;letter-spacing:-1px;text-anchor:middle;text-align:center" xml:space="preserve" line-height="110.00000238%" y="85" x="55.5"><tspan id="tspan5556" x="55" y="85">0.0730&quot;</tspan><tspan id="tspan5558" x="55" y="98.75">(1.854 mm)</tspan></text>
  </g>
  <g stroke="#00f" stroke-width=".5" fill="none">
   <path id="path5770" d="m100 17h-40"/>
   <path id="path5774" d="m100 163h-40"/>
   <path id="path5776" d="m70 163v-55" marker-start="url(#marker5994)"/>
  </g>
  <g font-size="12.5px" font-family="&apos;Bitstream Vera Sans&apos;" fill="#0000ff">
   <text id="text5778" style="word-spacing:0px;letter-spacing:-1px;text-anchor:middle;text-align:center" line-height="110.00000238%" y="272.00003" x="55.5" xml:space="preserve"><tspan id="tspan5780" y="272.00003" x="55">0.0780&quot;</tspan><tspan id="tspan5782" y="285.75003" x="55">(1.981 mm)</tspan></text>
   <text id="text5784" style="word-spacing:0px;letter-spacing:-1px;text-anchor:middle;text-align:center" line-height="110.00000238%" y="459" x="55.5" xml:space="preserve"><tspan id="tspan5786" y="459" x="55">0.0730&quot;</tspan><tspan id="tspan5788" y="472.75" x="55">(1.854 mm)</tspan></text>
   <text id="text5790" style="word-spacing:0px;letter-spacing:-1px;text-anchor:middle;text-align:center" xml:space="preserve" line-height="110.00000238%" y="646" x="87.500008"><tspan id="tspan5792" x="87.000008" y="646">0.0730&quot;</tspan><tspan id="tspan5794" x="87.000008" y="659.75">(1.854 mm)</tspan></text>
  </g>
  <g stroke="#00f" stroke-width=".5" fill="none">
   <path id="path5848" d="m100 199h-40"/>
   <path id="path5852" d="m100 391h-40"/>
   <path id="path5856" d="m132 578h-40"/>
   <path id="path5918" d="m100 355h-40"/>
   <path id="path5920" d="m70 355v-55" marker-start="url(#marker6140)"/>
   <path id="path5922" d="m100 537h-40"/>
   <path id="path5924" d="m70 537v-55" marker-start="url(#marker6310)"/>
   <path id="path5926" d="m132 724h-40"/>
   <path id="path5928" d="m102 724v-55" marker-start="url(#marker5860)"/>
   <path id="path6464" d="m90 345v56"/>
   <path id="path6466" d="m310 345v56"/>
  </g>
  <text id="text6470" style="word-spacing:0px;letter-spacing:-1px;text-anchor:middle;text-align:center" xml:space="preserve" font-size="12.5px" line-height="110.00000238%" y="368" x="200.5" font-family="&apos;Bitstream Vera Sans&apos;" fill="#0000ff"><tspan id="tspan6472" x="200" y="368">0.1100&quot;</tspan><tspan id="tspan6474" x="200" y="381.75">(2.794 mm)</tspan></text>
  <g stroke="#00f" stroke-width=".5" fill="none">
   <path id="path6476" marker-end="url(#marker6484)" d="m240 373h70"/>
   <path id="path6818" marker-end="url(#marker6820)" d="m160 373h-70"/>
   <path id="path7046" d="m278 548v40"/>
  </g>
  <text id="text7048" style="word-spacing:0px;letter-spacing:-1px;text-anchor:middle;text-align:center" xml:space="preserve" font-size="12.5px" line-height="110.00000238%" y="560" x="200.5" font-family="&apos;Bitstream Vera Sans&apos;" fill="#0000ff"><tspan id="tspan7050" x="200" y="560">0.0780&quot;</tspan><tspan id="tspan7052" x="200" y="573.75">(1.981 mm)</tspan></text>
  <g stroke="#00f" stroke-width=".5" fill="none">
   <path id="path7172" d="m122 548v40"/>
   <path id="path7174" marker-end="url(#marker7182)" d="m233 558h45"/>
   <path id="path7384" marker-end="url(#marker7386)" d="m167 558h-45"/>
   <path id="path7588" d="m117.89 188v-20"/>
   <path id="path7590" d="m282.14 188v-20"/>
  </g>
  <text id="text7592" style="word-spacing:0px;letter-spacing:-1px;text-anchor:middle;text-align:center" font-size="12.5px" line-height="110.00000238%" y="175" x="200.5" font-family="&apos;Bitstream Vera Sans&apos;" xml:space="preserve" fill="#0000ff"><tspan id="tspan7594" y="175" x="200">0.0820&quot;</tspan><tspan id="tspan7596" y="188.75" x="200">(2.08 mm)</tspan></text>
  <path id="path7610" marker-end="url(#marker7614)" d="m237.14 178h45" stroke="#00f" stroke-width=".5" fill="none"/>
  <path id="path7612" marker-end="url(#marker7870)" d="m162.89 178h-45" stroke="#00f" stroke-width=".5" fill="none"/>
  <text id="text8036" style="word-spacing:0px;letter-spacing:-1px;text-anchor:middle;text-align:center" font-size="12.5px" line-height="110.00000238%" y="90" x="200.5" font-family="&apos;Bitstream Vera Sans&apos;" xml:space="preserve" fill="#0000ff"><tspan id="tspan8038" y="90" x="200">Φ 0.1100&quot;</tspan><tspan id="tspan8040" y="103.75" x="200">(2.794 mm)</tspan></text>
  <path id="path8042" d="m104.74 145 58.891-34.001" marker-start="url(#marker8050)" stroke="#00f" stroke-width=".5" fill="none"/>
  <path id="path8180" d="m295.26 35-58.89 34.001" marker-start="url(#marker8182)" stroke="#00f" stroke-width=".5" fill="none"/>
 </g>
</svg>
